<svg width="92" height="44" viewBox="0 0 92 44" version="1.1" xmlns="http://www.w3.org/2000/svg" xmlns:xlink="http://www.w3.org/1999/xlink">
<title>Group</title>
<desc>Created using Figma</desc>
<g id="Canvas" transform="translate(400 218)">
<g id="Group">
<g id="Rectangle 4">
<use xlink:href="#path0_fill" transform="translate(-384.109 -194.842)" fill="#E0E0E0"/>
</g>
<g id="Vector">
<use xlink:href="#path1_fill" transform="translate(-354 -218)" fill="#828282"/>
</g>
<g id="Mask Group">
<mask id="mask0_alpha" mask-type="alpha">
<g id="Vector">
<use xlink:href="#path1_fill" transform="translate(-354 -218)" fill="#828282"/>
</g>
</mask>
<g id="Rectangle 5" mask="url(#mask0_alpha)">
<use xlink:href="#path2_fill" transform="translate(-354 -184.421)" fill="#2D9CDB"/>
</g>
</g>
<g id="Vector" mask="url(#mask0_alpha)">
<use xlink:href="#path1_fill" transform="matrix(-1 0 0 1 -354 -218)" fill="#ABABAB"/>
</g>
<g id="Mask Group">
<mask id="mask1_alpha" mask-type="alpha">
<g id="Vector">
<use xlink:href="#path1_fill" transform="matrix(-1 0 0 1 -354 -218)" fill="#828282"/>
</g>
</mask>
<g id="Rectangle 5" mask="url(#mask1_alpha)">
<use xlink:href="#path2_fill" transform="translate(-397.491 -184.421)" fill="#56CCF2"/>
</g>
</g>
</g>
</g>
<defs>
<path id="path0_fill" d="M 0 0L 60.2182 0L 60.2182 16.2105L 0 16.2105L 0 0Z"/>
<path id="path1_fill" d="M 39.3694 44L 0 44L 0 0L 12.018 7.42857L 12.018 28L 27.3514 28L 29.009 20.5714L 46 20.5714L 39.3694 44Z"/>
<path id="path2_fill" d="M 0 0L 43.4909 0L 43.4909 4.63158L 0 4.63158L 0 0Z"/>
</defs>
</svg>
