<svg version="1.1" xmlns="http://www.w3.org/2000/svg" xmlns:xlink="http://www.w3.org/1999/xlink"  x="0px" y="0px" width="123px" height="75px" viewBox="0 0 61.1 37.2" enable-background="new 0 0 61.1 37.2" xml:space="preserve">
    <g>
        <rect id="XMLID_5_" x="34.7" y="9.7" fill="#E55125" width="9.1" height="4"/>
        <rect id="XMLID_4_" x="12.9" y="9.7" fill="#F57E20" width="9.1" height="4"/>
        <polygon id="XMLID_3_" fill="#FEBB18" points="28.2,27.7 28.2,0 21.3,2 21.3,13.4 15,13.2 12.9,5.7 0,5.7 5.6,27.7"/>
        <polygon id="XMLID_2_" fill="#F49221" points="28.2,27.7 28.2,0 35.2,2 35.2,13.4 41.4,13.2 43.5,5.7 56.5,5.7 50.8,27.7"/>
        <polygon fill="#0c79bc" points="3.1,17.9 4.5,23.4 28.2,23.4 28.2,17.9"/>
        <polygon fill="#025490" points="53.3,17.9 51.9,23.4 28.2,23.4 28.2,17.9"/>
    </g>
</svg>