<svg version="1.1" xmlns="http://www.w3.org/2000/svg" xmlns:xlink="http://www.w3.org/1999/xlink"  x="0px" y="0px" width="123px" height="75px" viewBox="0 0 61.1 37.2" enable-background="new 0 0 61.1 37.2" xml:space="preserve">
      <rect id="XMLID_16_" x="36.2" y="10.9" fill="#E55125" width="9.1" height="4"/>
      <rect id="XMLID_15_" x="14.4" y="10.9" fill="#F57E20" width="9.1" height="4"/>
      <polygon id="XMLID_14_" fill="#F49221" points="51.5,35.5 59.4,4.8 46.7,6.8 43.6,14.4 36.7,14.6 36.7,2 29.7,0 29.7,35.5"/>
      <polygon id="XMLID_13_" fill="#E38825" points="36.4,22.4 29.7,32.3 29.7,35.5 45.3,35.5"/>
      <polygon id="XMLID_12_" fill="#FEBB18" points="8,35.5 0,4.8 12.8,6.8 15.8,14.4 22.8,14.6 22.8,2 29.7,0 29.7,35.5"/>
    <g>
        <polygon id="XMLID_11_" fill="#3C82C4" points="29.8,22.4 23.1,22.4 26.4,27.4"/>
        <polygon id="XMLID_10_" fill="#6795CE" points="23.1,22.4 29.8,22.4 26.4,17.5"/>
        <polygon id="XMLID_9_" fill="#7DA3D5" points="26.4,17.5 29.8,22.4 29.8,17.5 29.8,12.6"/>
        <polygon id="XMLID_8_" fill="#3480C3" points="29.8,12.6 29.8,17.5 29.8,22.4 33.1,17.5"/>
        <polygon id="XMLID_7_" fill="#005A9A" points="36.5,22.4 29.8,22.4 33.1,27.4"/>
        <polygon id="XMLID_6_" fill="#0075BC" points="29.8,22.4 36.5,22.4 33.1,17.5"/>
        <polygon id="XMLID_5_" fill="#0A79BF" points="26.4,27.4 29.8,32.3 29.8,27.4 29.8,22.4"/>
        <polygon id="XMLID_4_" fill="#005490" points="29.8,22.4 29.8,27.4 29.8,32.3 33.1,27.4"/>
    </g>
    <path id="XMLID_2_" fill="#FFFFFF" d="M29.8,19.2c-1.8,0-3.3-1.5-3.3-3.3c0,1.8-1.5,3.3-3.3,3.3c1.8,0,3.3,1.5,3.3,3.3 C26.5,20.7,28,19.2,29.8,19.2z"/>    
</svg>